<?xml version="1.0" ?><!DOCTYPE svg  PUBLIC '-//W3C//DTD SVG 1.1//EN'  'http://www.w3.org/Graphics/SVG/1.1/DTD/svg11.dtd'><svg height="512px" style="enable-background:new 0 0 512 512;" version="1.1" viewBox="0 0 512 512" width="512px" xml:space="preserve" xmlns="http://www.w3.org/2000/svg" xmlns:xlink="http://www.w3.org/1999/xlink"><g id="comp_x5F_302-sith"><g><path d="M26.002,26.001l71.576,121.931l-60.438-11.829l71.711,93.468c-3.11,17.473-3.11,35.355,0,52.829l-71.711,93.469    l60.438-11.829l-71.576,121.96l121.929-71.577l-11.828,60.436l93.469-71.709c17.476,3.121,35.393,3.121,52.857,0l93.468,71.709    l-11.827-60.436l121.929,71.577l-71.575-121.96l60.436,11.829l-71.71-93.469c3.11-17.468,3.121-35.362,0-52.829l71.71-93.468    l-60.436,11.829l71.575-121.931L364.069,97.578l11.827-60.477l-93.497,71.74c-8.729-1.561-17.56-2.351-26.398-2.351    c-8.841,0-17.671,0.8-26.399,2.351l-93.499-71.74l11.828,60.477L26.002,26.001z M256.001,128.454    c32.651,0,65.302,12.444,90.2,37.344c49.801,49.799,49.79,130.616,0,180.403c-49.787,49.789-130.604,49.761-180.404-0.029    c-49.798-49.799-49.788-130.617,0-180.405C190.687,140.867,223.35,128.454,256.001,128.454L256.001,128.454z M256.001,166.095    c-23.021,0-46.031,8.748-63.579,26.297c-35.096,35.095-35.106,92.081,0,127.186c35.105,35.105,92.05,35.098,127.156,0    c35.096-35.094,35.106-92.08,0-127.186C302.03,174.843,279.02,166.095,256.001,166.095L256.001,166.095z"/></g></g><g id="Layer_1"/></svg>