<?xml version="1.0" encoding="utf-8"?>
<!-- Generator: Adobe Illustrator 24.1.0, SVG Export Plug-In . SVG Version: 6.00 Build 0)  -->
<svg version="1.1" id="Layer_1" xmlns="http://www.w3.org/2000/svg" xmlns:xlink="http://www.w3.org/1999/xlink" x="0px" y="0px"
	 viewBox="0 0 2353 1049.4" style="enable-background:new 0 0 2353 1049.4;" xml:space="preserve">
<style type="text/css">
	.st0{fill-rule:evenodd;clip-rule:evenodd;}
</style>
<g>
	<path class="st0" d="M0,328v164.1h479.9c55.8,0,127.1-51.6,127.1-136.9c0-34.3,13.1-56.7-27.2-102.1l-61.4-72.7
		c-35.2-32.8,4.2-32.8,33.7-32.8h202.6v344.6h160.7V147.6H1132V0H430.7C345.4,0,303.6,81.9,306,124.6c2.4,42.7,10.2,96.3,81.1,160.8
		c64.7,58.8-32,42.7-41.7,42.7L0,328L0,328z M1487.4,0h-259.2l-145.3,492.1h161.7l26.2-68.9h170.6l25.3,68.9h158.4L1487.4,0
		L1487.4,0z M1306.9,305.1l55.8-180.5l52.5,180.5H1306.9z M2137.1,328c-62.3,0-62.3-23-62.3-23c53.4,0,100.8-77.8,100.8-157.5
		S2097.7,0,2035.3,0h-348.8v492.1h177.2V328.1c0,0,75.5,88.6,114.8,124.7c39.4,36.1,42.7,39.4,96.1,39.4h278.2V328.1
		C2352.9,328,2199.4,328,2137.1,328L2137.1,328z M1976.3,213.2h-112.5v-88.6h112.5C2027.8,124.6,2036.8,213.2,1976.3,213.2z
		 M0,554.5h181.3l45.9,164.1l42.7-164.1h190.3l49.2,164.1l49.2-164.1h157.5l-144.4,492.2H427.4l-63.3-233l-71.3,233H145.2L0,554.5z
		 M1088.3,557.3H829l-145.3,492.1h161.7l26.3-68.9h170.6l25.3,68.9h158.4L1088.3,557.3z M907.8,862.4l55.8-180.5l52.5,180.5H907.8z
		 M2140.3,702.1c-29.5,0-61.7,3.4-26.5,36.3l61.4,72.7c40.3,45.4,39.7,64.3,39.7,98.7c0,85.3-84.4,136.9-140.2,136.9l-387.7,2.6
		c-53.4,0-56.7-3.3-96.1-39.4c-39.4-36.1-114.8-124.7-114.8-124.7v164.1h-177.2V557.2h348.8c62.3,0,140.2,67.9,140.2,147.6
		c0,79.7-47.4,157.5-100.8,157.5c0,0,23.5,23.6,62.9,23.6c39.4,0,191,0.2,191,0.2c9.7,0,106.4,16.1,41.7-42.7
		c-70.9-64.5-78.8-118.1-81.1-160.8c-2.4-42.7,34.5-128.2,119.8-128.2H2353v147.7L2140.3,702.1L2140.3,702.1L2140.3,702.1z
		 M1588.5,770.4h-112.5v-88.6h112.5C1640.1,681.8,1649,770.4,1588.5,770.4z"/>
</g>
</svg>
